<?xml version="1.0" encoding="UTF-8"?>
<svg id="Layer_5" data-name="Layer 5" xmlns="http://www.w3.org/2000/svg" viewBox="0 0 3400.95 745.64">
  <defs>
    <style>
      .cls-1 {
        fill: #fff;
      }

      .cls-2 {
        fill: #2e7bfa;
      }
    </style>
  </defs>
  <rect class="cls-2" x="76.06" y="56.62" width="639.31" height="639.31" rx="142.63" ry="142.63"/>
  <g id="Camada_1-2" data-name="Camada 1-2">
    <g>
      <path class="cls-1" d="M411.44,546.91l30.4-47.89c1.17-1.85,3.2-2.98,5.4-3l61.58-.68c4.88-.06,7.95-5.29,5.61-9.58l-36.14-66c-1.14-2.08-3.31-3.37-5.68-3.37h-70.78c-2.56,0-4.88-1.51-5.92-3.86l-19.86-44.92c-1.89-4.28,1.24-9.09,5.92-9.09h132.17c2.31,0,4.45,1.23,5.61,3.24l107.03,185.37c2.49,4.32-.62,9.71-5.61,9.71h-204.25c-5.1,0-8.2-5.63-5.47-9.94h0Z"/>
      <path class="cls-1" d="M431.82,338.42l-28.61-51.9c-2.44-4.43-8.81-4.47-11.3-.06l-36.26,64.16c-1.03,1.82-1.11,4.01-.23,5.91l29.88,64.36c.89,1.92,.79,4.15-.28,5.98l-22.88,39.32c-1.36,2.33-4.02,3.58-6.69,3.12h0c-1.85-.32-3.48-1.43-4.46-3.05l-68.84-114.54c-1.21-2.01-1.23-4.52-.07-6.56l108.04-188.46c2.49-4.33,8.73-4.34,11.22-.01l101.23,175.35c2.49,4.32-.62,9.71-5.61,9.71h-59.48c-2.36,0-4.53-1.28-5.67-3.34h.01Z"/>
      <path class="cls-1" d="M306.94,432.22l-31.55,57.6c-2.36,4.32,.76,9.58,5.68,9.58h76.85c2.25,0,4.34-1.17,5.51-3.1l37.31-60.9c1.17-1.92,3.26-3.1,5.51-3.1h47.67c5.07,0,8.17,5.56,5.51,9.87l-68.82,111.58c-1.17,1.91-3.26,3.07-5.51,3.07H170.28c-4.99,0-8.09-5.4-5.61-9.71l99.96-173.13c2.46-4.28,8.62-4.33,11.16-.08l31.02,51.88c1.17,1.97,1.22,4.41,.12,6.43h.01Z"/>
    </g>
  </g>
  <g>
    <path d="M953.11,411.15l82.4-177.6h49.2l33.6,275.6h-58.8l-19.2-165.2-64.4,133.6h-45.2l-64.8-133.6-19.6,165.2h-58.8l34-275.6h48.4l83.2,177.6Z"/>
    <path d="M1231.11,369.95l129.2,139.2h-76l-82.8-93.6v93.6h-59.2V233.55h59.2v90.4l65.2-90.4h68.8l-104.4,136.4Z"/>
    <path d="M1395.9,428.35c1.2,18.8,16,33.2,41.2,33.2s40-11.6,40.4-29.2c.4-14-7.2-23.6-33.2-31.2l-33.2-9.2c-47.6-14.8-71.2-41.2-71.2-79.2,0-24.4,9.2-44,27.2-59.2,18-15.6,40.8-23.2,67.6-23.2s49.6,7.6,66.8,22.8c17.6,15.2,26.4,35.6,26.4,61.6h-58.4c0-18.8-12.8-31.2-35.6-31.2-20.8,0-35.6,11.6-35.6,27.6,0,13.2,10,22.4,29.6,28l32.8,10.4c51.6,14.8,76.8,42.8,75.6,83.2-.4,17.2-5.2,32.4-15.2,45.2-19.6,25.2-50,35.6-84,35.6-30,0-54-8-72.4-23.6-18.4-16-27.6-36.4-27.6-61.6h58.8Z"/>
  </g>
</svg>